# xmcd CD database file
#
# Track frame offsets:
#	150
#	13145
#	25293
#	37350
#	48667
#	60931
#	73135
#	86568
#	96869
#	109364
#	121508
#	133022
#	144141
#	155108
#	163970
#	174507
#	186554
#	198213
#
# Disc length: 2792 seconds
#
# Revision: 0
# Processed by: cddbd v1.5.1PL0 Copyright (c) Steve Scherf et al.
# Submitted via: Feurio! 1.66 - http://www.feurio.com
#
DISCID=070ae612
DTITLE=Various Artist - Honky Tonk Country Music 1945-1953 CD2
DYEAR=1900
DGENRE=
TTITLE0=Kitty Wells - Makin' Believe
TTITLE1=Kitty Wells - The Life They Live In Songs
TTITLE2=Floyd Tillman - Gotta Have Something
TTITLE3=Hank Thompson - Cryin' In The Deep Blue Sea
TTITLE4=Hank Thompson - The Wild Side Of Life
TTITLE5=Al Montgomery - It Wasn't God Who Made Honky Tonk Angels
TTITLE6=Dave Dudley - Nashville Blues
TTITLE7=Ferlin Husky - Tennessee Central Number 9
TTITLE8=Jimmy Work - Do Your Honky Tonkin' At Home
TTITLE9=Faron Young - Goin' Steady
TTITLE10=Sonny James - That's Me Without You
TTITLE11=Tommy Collins - You Gotta Have A License
TTITLE12=Hank Snow - Music Makin' Mama From Memphis
TTITLE13=Skeets McDonald - Baby, I'm Countin'
TTITLE14=Johnny Horton - Bawlin' Baby
TTITLE15=Jean Shepard - Twice The Lovin' In Half The Time
TTITLE16=Ernie Lee - I'm Not Lonesome Anymore
TTITLE17=Jimmie Logsdon - Hank Williams Sings The Blues No More
EXTD=
EXTT0=
EXTT1=
EXTT2=
EXTT3=
EXTT4=
EXTT5=
EXTT6=
EXTT7=
EXTT8=
EXTT9=
EXTT10=
EXTT11=
EXTT12=
EXTT13=
EXTT14=
EXTT15=
EXTT16=
EXTT17=
PLAYORDER=
